<svg preserveAspectRatio="none" overflow="visible" style="display: block;" width="24" height="24" viewBox="0 0 24 24" fill="none" xmlns="http://www.w3.org/2000/svg">
<g id="Double-right (&#229;&#143;&#140;&#229;&#143;&#179;)">
<path id="Vector" d="M5.29289 5.29295C5.68342 4.90243 6.31643 4.90243 6.70696 5.29295L12.707 11.293C13.0974 11.6835 13.0975 12.3165 12.707 12.707L6.70696 18.707C6.31646 19.0975 5.68342 19.0975 5.29289 18.707C4.90237 18.3165 4.90237 17.6835 5.29289 17.293L10.5859 12L5.29289 6.70702C4.90237 6.31649 4.90237 5.68348 5.29289 5.29295ZM11.2929 5.29295C11.6834 4.90243 12.3164 4.90243 12.707 5.29295L18.707 11.293C19.0974 11.6835 19.0975 12.3165 18.707 12.707L12.707 18.707C12.3165 19.0975 11.6834 19.0975 11.2929 18.707C10.9024 18.3165 10.9024 17.6835 11.2929 17.293L16.5859 12L11.2929 6.70702C10.9024 6.31649 10.9024 5.68348 11.2929 5.29295Z" fill="currentColor"/>
</g>
</svg>
